<?xml version="1.0" standalone="no"?>
<!DOCTYPE svg PUBLIC "-//W3C//DTD SVG 20010904//EN"
 "http://www.w3.org/TR/2001/REC-SVG-20010904/DTD/svg10.dtd">
<svg version="1.0" xmlns="http://www.w3.org/2000/svg"
 width="1158.000000pt" height="1280.000000pt" viewBox="0 0 1158.000000 1280.000000"
 preserveAspectRatio="xMidYMid meet">
<metadata>
Created by potrace 1.15, written by Peter Selinger 2001-2017
</metadata>
<g transform="translate(0.000000,1280.000000) scale(0.100000,-0.100000)"
fill="#000000" stroke="none">
<path d="M9110 12702 c-80 -48 -160 -98 -179 -111 -18 -13 -72 -44 -118 -67
-46 -24 -114 -64 -151 -90 -37 -26 -97 -59 -134 -74 -81 -33 -142 -68 -196
-113 -23 -19 -58 -38 -79 -42 -57 -10 -173 -69 -223 -113 -33 -28 -58 -41 -91
-46 -60 -9 -177 -65 -226 -109 -27 -25 -52 -36 -86 -41 -26 -4 -64 -13 -84
-20 -33 -11 -40 -10 -88 16 -75 40 -226 93 -335 116 -124 27 -235 39 -455 52
-376 23 -499 52 -649 155 -63 43 -52 21 21 -40 73 -61 172 -116 242 -135 24
-6 41 -14 38 -16 -8 -9 -247 34 -342 61 -49 14 -133 35 -185 46 -154 34 -250
11 -343 -79 -65 -63 -82 -97 -22 -45 94 84 219 104 386 62 108 -27 132 -41 54
-31 -33 4 -94 7 -135 6 -90 0 -148 -25 -207 -87 -25 -27 -29 -35 -13 -24 49
34 112 59 165 64 59 6 185 -5 185 -16 0 -4 -24 -13 -52 -21 -83 -21 -183 -64
-252 -109 -131 -86 -263 -104 -401 -56 l-70 24 40 -34 c55 -48 131 -75 213
-76 l67 -1 -60 -14 c-133 -30 -213 -13 -333 67 -80 54 -80 52 -15 -33 49 -65
111 -105 187 -124 l51 -12 -46 -1 c-64 -1 -124 22 -191 74 -32 25 -58 41 -58
37 0 -16 116 -125 154 -144 21 -11 66 -26 100 -33 49 -10 56 -14 36 -18 -428
-102 -502 -133 -654 -280 l-81 -79 75 57 c41 31 96 68 122 81 57 29 161 69
134 51 -159 -102 -214 -144 -292 -221 -49 -50 -102 -112 -117 -138 -37 -63
-59 -153 -51 -203 8 -48 44 -123 72 -148 18 -16 18 -14 -4 29 -28 55 -31 118
-9 172 18 43 76 135 81 129 2 -2 -5 -30 -17 -63 -15 -45 -20 -78 -17 -136 3
-67 7 -80 33 -114 17 -20 55 -51 85 -67 l55 -31 -47 46 c-71 70 -80 138 -29
221 41 66 167 164 291 227 44 22 43 21 -43 -69 -110 -114 -142 -176 -134 -261
2 -31 14 -77 25 -101 l19 -44 -5 67 c-6 84 15 130 98 220 70 74 74 67 35 -67
-79 -271 -195 -415 -335 -415 -63 0 -115 25 -183 88 -61 57 -47 22 20 -49 56
-60 110 -82 191 -77 69 3 69 -2 -2 -26 -148 -49 -263 4 -327 149 -11 25 -21
45 -23 45 -7 0 15 -96 30 -134 37 -94 101 -141 229 -168 l80 -17 -61 0 c-81
-1 -148 21 -212 69 -32 24 -49 33 -43 22 18 -34 83 -84 151 -116 62 -29 71
-31 185 -31 106 1 128 4 188 28 37 14 67 23 67 19 0 -13 -63 -69 -95 -85 -16
-8 -90 -24 -164 -36 -196 -31 -252 -61 -297 -156 -28 -60 -32 -92 -5 -50 54
87 126 118 286 122 l120 3 -87 -25 c-102 -28 -173 -63 -207 -99 -31 -33 -40
-115 -18 -166 l15 -35 1 41 c2 85 67 123 221 130 l95 5 -37 -19 c-115 -61
-142 -106 -144 -242 -1 -52 -10 -135 -19 -185 -24 -124 -22 -297 4 -396 37
-144 124 -279 240 -376 91 -75 115 -86 59 -25 -66 70 -125 166 -145 232 -23
73 -20 225 5 355 l19 100 -5 -125 c-5 -139 7 -240 39 -323 26 -69 108 -177
179 -236 l54 -46 -52 65 c-125 155 -157 305 -106 505 18 70 85 258 90 252 2
-2 -5 -44 -16 -93 -30 -133 -36 -256 -17 -331 19 -73 56 -149 103 -214 64 -87
89 -155 89 -241 0 -69 -3 -80 -30 -119 -46 -65 -110 -94 -210 -94 -67 0 -90 5
-140 28 -32 15 -74 39 -93 54 -30 23 -33 23 -23 5 6 -11 33 -43 60 -71 47 -48
117 -81 175 -81 12 0 27 -4 33 -8 7 -5 -27 -13 -80 -20 -178 -22 -376 -95
-455 -167 -99 -89 -71 -202 74 -304 l49 -35 -43 47 c-71 78 -76 115 -22 161
52 43 223 77 380 75 l65 -1 -67 -13 c-139 -28 -180 -78 -125 -153 20 -26 93
-92 102 -92 2 0 -9 22 -24 50 -24 47 -25 51 -11 77 27 48 103 70 296 87 228
20 331 53 408 131 54 54 69 90 75 185 l5 85 12 -40 c66 -212 -104 -393 -421
-449 l-80 -14 125 -1 c178 -1 223 8 435 83 44 16 -80 -85 -142 -116 -56 -27
-79 -33 -157 -36 -50 -2 -95 -7 -99 -11 -4 -4 31 -13 78 -20 95 -15 167 -9
257 19 32 10 58 16 58 14 0 -13 -83 -78 -128 -100 -47 -24 -60 -26 -120 -20
-37 3 -80 8 -97 11 -21 4 -14 -2 25 -21 88 -41 152 -50 245 -31 43 9 80 15 81
14 2 -2 -24 -39 -58 -82 -216 -282 -511 -562 -820 -777 -105 -74 -107 -75
-200 -87 -268 -36 -404 -80 -532 -174 -46 -34 -141 -102 -211 -152 -252 -177
-389 -352 -446 -569 -6 -22 -15 -58 -20 -78 -10 -37 -11 -38 -57 -38 -242 0
-690 205 -912 416 -92 87 -213 167 -363 240 -156 75 -252 98 -384 92 -94 -4
-109 -8 -178 -42 -174 -86 -313 -291 -415 -611 l-31 -101 -85 8 c-164 16 -246
69 -315 202 -18 36 -35 64 -36 62 -5 -5 38 -149 53 -178 8 -16 34 -48 57 -70
l42 -41 -61 32 c-80 42 -140 102 -173 171 -24 50 -26 66 -25 175 l0 120 -19
-75 c-26 -105 -28 -258 -4 -328 25 -69 109 -161 207 -224 81 -52 77 -60 -14
-28 -76 26 -119 53 -190 120 l-60 55 46 -61 c114 -150 241 -231 434 -277 l98
-24 22 -114 c25 -128 69 -288 119 -425 l34 -92 -97 -6 c-216 -14 -328 -43
-379 -98 -36 -38 -65 -117 -70 -187 l-4 -66 20 54 c52 138 139 182 361 180
l85 0 -48 -20 c-103 -42 -214 -132 -237 -195 -25 -66 2 -136 74 -193 21 -17
40 -31 42 -31 1 0 -8 19 -21 43 -30 51 -31 82 -5 124 47 77 203 148 371 168
l54 6 37 -58 c45 -70 74 -135 83 -185 l7 -36 -49 -7 c-292 -39 -408 -79 -505
-176 -48 -48 -110 -159 -124 -224 -6 -29 -5 -29 21 10 41 59 115 133 161 160
47 27 169 70 229 79 35 6 28 0 -54 -43 -100 -53 -158 -102 -195 -166 -21 -35
-76 -176 -76 -193 0 -3 21 25 46 63 102 157 193 215 413 266 48 11 95 23 105
26 18 5 19 1 13 -51 -8 -78 -38 -136 -109 -206 -34 -33 -58 -60 -54 -60 14 0
85 40 115 66 18 15 48 50 67 78 19 28 34 48 34 44 0 -3 -11 -45 -25 -92 -32
-111 -63 -171 -117 -229 l-43 -47 -114 35 c-256 79 -466 100 -596 61 -91 -27
-193 -85 -254 -144 l-56 -53 64 40 c34 22 88 50 120 62 73 28 226 36 347 18
l89 -13 -124 -8 c-283 -17 -414 -94 -551 -323 -19 -31 -5 -20 65 51 191 191
326 206 675 77 55 -20 100 -40 100 -43 0 -4 -48 -10 -106 -14 -375 -24 -631
-136 -679 -298 -21 -73 -19 -135 10 -225 28 -91 65 -154 40 -69 -18 58 -19
153 -4 193 14 38 75 100 123 125 46 23 166 70 166 64 0 -2 -24 -18 -54 -35
-67 -38 -119 -88 -147 -143 -18 -35 -21 -54 -17 -117 4 -62 11 -89 42 -150 21
-40 39 -71 41 -70 2 2 -3 29 -11 59 -58 216 100 321 434 289 67 -6 121 -13
120 -15 -2 -1 -46 -7 -98 -13 -236 -26 -320 -94 -319 -256 l0 -70 23 50 c13
28 32 58 42 67 62 54 183 63 337 24 136 -35 140 -41 22 -38 -109 4 -163 -7
-248 -50 -52 -26 -43 -30 23 -13 84 22 196 29 280 16 41 -7 174 -45 295 -86
304 -102 415 -129 605 -145 395 -32 672 125 856 487 48 95 49 73 2 -47 -125
-320 -297 -454 -653 -511 l-120 -18 138 5 c164 6 280 24 402 65 124 41 216 98
307 190 64 64 85 95 127 181 57 118 77 185 101 348 l17 115 17 -74 c26 -115
31 -215 12 -293 -15 -64 -70 -185 -117 -255 -40 -62 -12 -33 44 45 126 175
173 319 165 510 -6 136 -33 232 -105 376 l-44 88 13 52 c7 30 13 101 12 171
-1 167 -29 247 -131 372 l-43 52 40 73 c90 169 136 378 127 585 -6 131 6 177
17 65 15 -149 53 -246 127 -318 l40 -39 -30 71 c-56 131 -59 236 -10 381 l22
67 18 -88 c22 -109 152 -389 277 -599 45 -75 82 -141 82 -147 0 -30 68 -137
150 -235 50 -60 93 -119 96 -131 4 -14 -14 -51 -53 -115 -79 -126 -140 -235
-268 -474 -70 -130 -126 -223 -163 -265 -111 -130 -129 -228 -62 -346 29 -52
30 -57 16 -77 -70 -98 -88 -128 -100 -168 -19 -62 -6 -126 42 -209 21 -36 48
-92 62 -125 42 -108 147 -322 223 -457 62 -111 88 -172 155 -368 44 -129 109
-318 146 -420 36 -102 66 -201 66 -221 0 -20 9 -66 20 -102 24 -77 88 -150
149 -168 l37 -11 12 -92 c15 -118 27 -151 60 -165 74 -31 308 -41 407 -17 l50
12 -2 63 c-2 83 -38 156 -115 233 -53 53 -60 65 -68 115 -13 75 -42 116 -147
205 -148 125 -198 213 -318 567 -138 405 -162 533 -137 726 l7 50 91 -120 c50
-66 221 -298 382 -516 263 -358 292 -403 307 -460 44 -168 125 -254 254 -268
l55 -6 12 -50 c22 -85 65 -158 105 -178 59 -28 146 -40 269 -34 127 5 193 22
198 50 8 41 -136 215 -258 312 -65 52 -67 55 -73 108 -12 120 -56 171 -200
233 -59 25 -84 44 -171 134 -212 219 -375 466 -700 1063 l-98 177 38 53 c63
88 188 229 260 293 38 34 114 88 168 120 168 99 240 187 279 337 13 49 26 70
77 122 82 86 102 134 108 260 l4 100 87 81 c49 47 98 103 114 132 32 59 57
163 57 239 0 59 -4 54 134 134 79 45 177 142 210 207 35 70 61 185 82 370 l17
152 83 0 c46 0 136 7 200 15 881 116 1582 722 2034 1760 l57 130 129 6 c110 4
137 9 184 30 73 34 112 69 176 156 116 156 1026 1043 1070 1043 19 0 249 -226
320 -314 36 -45 92 -125 124 -179 50 -84 59 -108 70 -179 12 -84 46 -187 80
-245 19 -33 19 -33 -2 -69 -17 -29 -20 -45 -15 -93 6 -50 4 -61 -13 -76 -32
-29 -54 -99 -47 -154 13 -109 75 -196 194 -271 142 -91 203 -48 254 180 16 72
28 102 50 125 72 77 65 177 -21 310 -21 33 -59 111 -85 174 -77 191 -213 445
-373 699 -29 45 -51 82 -49 82 1 0 77 -20 167 -44 287 -77 378 -121 471 -228
69 -80 117 -102 203 -93 l63 7 6 -76 c8 -92 26 -139 64 -162 37 -25 40 -29 47
-86 10 -70 43 -154 77 -193 72 -81 334 -135 429 -87 67 33 65 106 -11 278 -74
169 -160 278 -254 324 -60 29 -149 139 -159 195 -18 96 -70 172 -149 211 -27
14 -111 42 -186 61 -75 19 -192 58 -261 85 -172 69 -349 133 -585 213 -193 66
-202 70 -246 117 -32 34 -49 63 -58 98 -18 69 -88 160 -168 219 -84 62 -155
85 -233 78 -106 -9 -178 -64 -322 -244 -67 -84 -137 -144 -350 -299 -177 -129
-293 -234 -358 -323 -25 -34 -47 -61 -50 -61 -3 0 -14 21 -24 47 -24 57 -87
128 -137 153 -30 16 -37 26 -43 59 -11 69 -65 222 -120 336 -52 107 -82 160
-260 452 -92 152 -110 186 -85 166 8 -6 44 -21 80 -32 45 -15 76 -33 100 -57
38 -40 98 -74 129 -74 27 0 76 25 83 43 3 8 26 18 51 21 61 10 157 75 208 142
52 70 85 174 98 315 6 61 17 124 25 140 8 15 15 47 15 70 0 38 -6 47 -75 118
-82 85 -139 174 -244 385 -92 184 -120 283 -130 451 -7 124 -9 134 -48 216
-22 48 -59 114 -82 148 l-42 62 29 37 c16 20 41 61 56 90 18 35 36 56 54 63
83 30 161 102 198 184 14 30 31 55 37 55 46 0 178 110 223 187 17 29 40 49 72
64 43 21 169 135 203 184 8 11 41 38 74 59 33 22 96 73 140 116 44 42 98 88
120 102 22 14 69 51 105 82 36 31 110 90 165 133 200 153 199 158 -5 35z
m-1697 -3098 c-2 -11 -4 -47 -5 -81 -2 -34 -6 -59 -10 -55 -9 10 -148 249
-148 256 0 3 37 -19 83 -48 60 -39 81 -59 80 -72z"/>
</g>
</svg>
